"channel","pitch","tick_on","tick_off","dur_ticks","velocity"
0,35,179520,180001,481,35
0,38,0,480,480,57
0,38,74880,75360,480,57
0,38,164881,165000,119,45
0,38,240000,240480,480,55
0,38,260640,260761,121,49
0,38,260881,261000,119,44
0,38,263041,263520,479,59
0,38,288961,289441,480,35
0,40,51600,51720,120,58
0,40,126481,126601,120,58
0,40,157200,157320,120,45
0,40,164400,164520,120,52
0,40,164640,164881,241,51
0,40,239760,239880,120,51
0,40,260161,260281,120,49
0,40,260400,260521,121,42
0,41,69600,69841,241,52
0,41,144480,144720,240,52
0,41,170881,171840,959,56
0,42,70080,70321,241,52
0,42,144960,145201,241,52
0,42,156721,156841,120,52
0,42,156960,157200,240,51
0,42,163921,164040,119,59
0,42,164161,164400,239,61
0,42,171840,172800,960,51
0,42,177602,178560,958,40
0,42,179040,179520,480,39
0,42,183360,183840,480,32
0,42,239520,239640,120,48
0,42,259680,259800,120,49
0,42,259921,260041,120,40
0,43,156241,156361,120,59
0,43,156480,156721,241,61
0,43,163441,163561,120,62
0,43,163681,163921,240,67
0,43,182400,183360,960,32
0,43,239280,239400,120,45
0,43,261120,261241,121,49
0,43,261600,261720,120,49
0,43,286080,287040,960,40
0,44,51361,51480,119,60
0,44,126241,126360,119,60
0,44,167040,168001,961,56
0,45,0,480,480,57
0,45,24242,24480,238,44
0,45,26162,26400,238,47
0,45,26880,27120,240,50
0,45,27842,28080,238,51
0,45,29041,29131,90,45
0,45,29282,29371,89,45
0,45,29521,29612,91,45
0,45,29761,30180,419,49
0,45,50642,50761,119,57
0,45,51120,51240,120,58
0,45,51840,52320,480,60
0,45,73920,74400,480,35
0,45,74880,75360,480,57
0,45,99121,99361,240,44
0,45,101040,101280,240,47
0,45,101761,102000,239,50
0,45,102721,102960,239,51
0,45,103921,104010,89,45
0,45,104161,104251,90,45
0,45,104402,104492,90,45
0,45,104640,105060,420,49
0,45,125520,125640,120,57
0,45,126001,126120,119,58
0,45,126720,127201,481,60
0,45,148801,149280,479,35
0,45,155761,155880,119,62
0,45,156001,156241,240,67
0,45,159360,161280,1920,44
0,45,163200,163441,241,69
0,45,181440,181921,481,49
0,45,218162,218400,238,46
0,45,220080,220320,240,49
0,45,220800,221040,240,50
0,45,221762,222001,239,51
0,45,222960,223050,90,45
0,45,223200,223290,90,45
0,45,223441,223531,90,45
0,45,223681,224101,420,49
0,45,247440,247560,120,58
0,45,262080,262201,121,42
0,45,262561,262680,119,48
0,45,263041,263520,479,59
0,45,287040,288000,960,40
0,45,288480,288961,481,39
0,46,168001,168960,959,51
0,46,284640,284880,240,52
0,47,50881,51000,119,63
0,47,125760,125881,121,63
0,47,151682,153600,1918,44
0,47,155521,155761,240,69
0,47,178560,179040,480,39
0,47,180480,181440,960,54
0,47,261360,261480,120,42
0,47,261842,261960,118,42
0,47,285120,285361,241,52
0,48,190080,190200,120,37
0,48,190561,190680,119,37
0,48,197761,197880,119,37
0,48,198240,198361,121,37
0,49,24000,24242,242,50
0,49,25921,26162,241,54
0,49,29041,29131,90,45
0,49,29282,29371,89,45
0,49,29521,29612,91,45
0,49,29761,30180,419,49
0,49,98880,99121,241,50
0,49,100801,101040,239,54
0,49,103921,104010,89,45
0,49,104161,104251,90,45
0,49,104402,104492,90,45
0,49,104640,105060,420,49
0,49,204241,204360,119,42
0,49,205200,205320,120,42
0,49,217921,218162,241,52
0,49,219841,220080,239,56
0,49,222960,223050,90,45
0,49,223200,223290,90,45
0,49,223441,223531,90,45
0,49,223681,224101,420,49
0,49,247200,247321,121,60
0,49,262800,262920,120,42
0,50,0,480,480,69
0,50,4321,4560,239,38
0,50,5760,6240,480,42
0,50,10081,10320,239,38
0,50,18361,18492,131,36
0,50,23761,23880,119,40
0,50,24480,24601,121,44
0,50,25680,25800,120,45
0,50,26400,26521,121,48
0,50,27360,27601,241,51
0,50,28321,28560,239,52
0,50,42721,43201,480,30
0,50,57601,57720,119,45
0,50,58080,58201,121,45
0,50,65280,65401,121,45
0,50,65760,65880,120,45
0,50,71040,72001,961,40
0,50,74880,75360,480,69
0,50,79201,79442,241,38
0,50,80640,81121,481,42
0,50,84961,85202,241,38
0,50,93240,93372,132,36
0,50,98640,98760,120,40
0,50,99361,99480,119,44
0,50,100562,100680,118,45
0,50,101280,101400,120,48
0,50,102240,102480,240,51
0,50,103200,103440,240,52
0,50,117601,118080,479,30
0,50,132480,132601,121,45
0,50,132960,133080,120,45
0,50,140161,140280,119,45
0,50,140640,140761,121,45
0,50,145920,146881,961,40
0,50,191040,191161,121,32
0,50,191521,191641,120,36
0,50,198721,198840,119,32
0,50,199200,199320,120,36
0,50,204480,204960,480,44
0,50,205440,205920,480,45
0,50,217681,217800,119,42
0,50,218400,218521,121,46
0,50,219600,219720,120,47
0,50,220320,220441,121,50
0,50,221281,221520,239,51
0,50,222241,222480,239,52
0,50,240000,240480,480,65
0,50,246481,246600,119,57
0,50,246962,247081,119,58
0,50,247680,248160,480,60
0,50,256800,256920,120,35
0,50,257040,257160,120,31
0,50,259800,259921,121,40
0,50,260041,260161,120,40
0,50,260281,260400,119,42
0,50,260521,260640,119,42
0,50,260761,260881,120,44
0,50,261000,261120,120,44
0,50,262320,262442,122,45
0,50,263041,263520,479,70
0,50,267361,267600,239,38
0,50,268800,269280,480,42
0,50,273121,273362,241,38
0,50,288000,288480,480,39
0,51,206160,206281,121,45
0,51,207120,207241,121,45
0,52,4800,5041,241,37
0,52,10560,10801,241,37
0,52,18481,18612,131,37
0,52,26880,27120,240,50
0,52,27842,28080,238,51
0,52,29041,29131,90,45
0,52,29282,29371,89,45
0,52,29521,29612,91,45
0,52,29761,30180,419,49
0,52,34080,34320,240,30
0,52,36480,36722,242,34
0,52,37440,37920,480,33
0,52,41760,42000,240,30
0,52,43201,44160,959,30
0,52,47762,47880,118,51
0,52,58561,58680,119,39
0,52,59040,59160,120,44
0,52,66240,66361,121,39
0,52,66720,66841,121,44
0,52,67922,68041,119,46
0,52,68880,69001,121,46
0,52,72001,72960,959,40
0,52,73440,73920,480,39
0,52,79680,79920,240,37
0,52,85440,85680,240,37
0,52,93360,93492,132,37
0,52,101761,102000,239,50
0,52,102721,102960,239,51
0,52,103921,104010,89,45
0,52,104161,104251,90,45
0,52,104402,104492,90,45
0,52,104640,105060,420,49
0,52,108960,109200,240,30
0,52,111360,111601,241,34
0,52,112320,112801,481,33
0,52,116640,116880,240,30
0,52,118080,119041,961,30
0,52,122640,122760,120,53
0,52,133440,133561,121,39
0,52,133920,134041,121,44
0,52,141121,141242,121,39
0,52,141600,141720,120,44
0,52,142800,142920,120,46
0,52,143761,143881,120,46
0,52,146881,147840,959,40
0,52,148320,148801,481,39
0,52,190320,190441,121,32
0,52,190800,190920,120,32
0,52,198000,198120,120,32
0,52,198481,198601,120,32
0,52,203280,203400,120,39
0,52,206400,206880,480,47
0,52,207360,207840,480,51
0,52,208080,208201,121,46
0,52,209041,209160,119,48
0,52,220800,221040,240,50
0,52,221762,222001,239,51
0,52,222960,223050,90,45
0,52,223200,223290,90,45
0,52,223441,223531,90,45
0,52,223681,224101,420,49
0,52,239760,239880,120,61
0,52,246721,246840,119,63
0,52,256320,256440,120,35
0,52,256561,256680,119,30
0,52,261241,261360,119,42
0,52,261480,261600,120,42
0,52,261720,261842,122,42
0,52,261960,262080,120,42
0,52,267840,268081,241,37
0,52,273600,273840,240,37
0,53,69600,69841,241,63
0,53,144480,144720,240,63
0,53,170641,170760,119,52
0,53,170881,171840,959,66
0,53,175680,175801,121,45
0,53,176162,176280,118,45
0,54,3840,4081,241,38
0,54,9600,9841,241,38
0,54,17280,17400,120,37
0,54,17760,17880,120,37
0,54,18240,18372,132,43
0,54,18600,18732,132,38
0,54,20400,20520,120,31
0,54,20640,20761,121,31
0,54,20880,21001,121,31
0,54,23520,23641,121,40
0,54,24720,24841,121,44
0,54,25440,25560,120,45
0,54,26640,26760,120,48
0,54,27360,27601,241,51
0,54,28321,28560,239,52
0,54,36001,36241,240,29
0,54,57841,57960,119,39
0,54,58321,58441,120,39
0,54,65520,65640,120,39
0,54,66002,66120,118,39
0,54,70080,70321,241,63
0,54,78720,78961,241,38
0,54,84480,84721,241,38
0,54,92162,92280,118,37
0,54,92640,92760,120,37
0,54,93122,93252,130,43
0,54,93480,93613,133,38
0,54,95282,95400,118,31
0,54,95520,95640,120,31
0,54,95761,95882,121,31
0,54,98402,98521,119,40
0,54,99600,99722,122,44
0,54,100322,100442,120,45
0,54,101521,101640,119,48
0,54,102240,102480,240,51
0,54,103200,103440,240,52
0,54,110880,111120,240,29
0,54,132720,132840,120,39
0,54,133202,133320,118,39
0,54,140401,140520,119,39
0,54,140881,141001,120,39
0,54,144960,145201,241,63
0,54,170161,170281,120,50
0,54,170400,170641,241,60
0,54,171840,172800,960,61
0,54,174720,174841,121,45
0,54,175200,175321,121,45
0,54,176640,177602,962,40
0,54,183360,183840,480,38
0,54,191760,191880,120,32
0,54,199442,199561,119,32
0,54,200401,200520,119,40
0,54,201360,201480,120,39
0,54,202320,202441,121,39
0,54,202801,202921,120,39
0,54,203520,204001,481,42
0,54,208321,208800,479,52
0,54,209280,209761,481,52
0,54,217440,217560,120,42
0,54,218640,218760,120,46
0,54,219360,219480,120,47
0,54,220560,220680,120,50
0,54,221281,221520,239,51
0,54,222241,222480,239,52
0,54,239520,239640,120,57
0,54,255841,255960,119,35
0,54,256080,256200,120,29
0,54,259201,259320,119,37
0,54,262201,262320,119,45
0,54,262442,262561,119,45
0,54,266880,267121,241,38
0,54,272640,272881,241,38
0,54,274561,274681,120,47
0,54,275040,275162,122,48
0,54,278400,278520,120,47
0,54,278880,279000,120,48
0,55,16802,16921,119,35
0,55,18720,18852,132,39
0,55,21120,21600,480,37
0,55,22320,22441,121,30
0,55,22560,22680,120,30
0,55,23280,23520,240,40
0,55,25201,25440,239,44
0,55,91680,91800,120,35
0,55,93600,93732,132,39
0,55,96001,96481,480,37
0,55,97201,97320,119,30
0,55,97440,97560,120,30
0,55,98160,98402,242,40
0,55,100080,100322,242,44
0,55,169680,169802,122,46
0,55,169920,170161,241,58
0,55,172800,172921,121,41
0,55,173280,173400,120,41
0,55,173760,173880,120,41
0,55,174241,174361,120,41
0,55,182400,183360,960,38
0,55,185760,185880,120,42
0,55,186000,186120,120,37
0,55,189601,189720,119,37
0,55,189840,189960,120,33
0,55,191280,191402,122,34
0,55,192001,192120,119,39
0,55,193441,193560,119,42
0,55,193680,193800,120,37
0,55,197280,197400,120,37
0,55,197520,197640,120,33
0,55,198960,199080,120,34
0,55,199680,200161,481,44
0,55,200641,201120,479,44
0,55,201602,202080,478,43
0,55,202560,202680,120,42
0,55,203040,203160,120,39
0,55,203280,203400,120,46
0,55,214080,214561,481,53
0,55,215040,215161,121,42
0,55,215280,215400,120,34
0,55,215521,215640,119,34
0,55,215760,215881,121,34
0,55,216000,216120,120,42
0,55,216240,216362,122,34
0,55,217202,217440,238,42
0,55,219121,219360,239,46
0,55,239280,239400,120,53
0,55,253441,253560,119,45
0,55,253921,254040,119,45
0,55,257281,257400,119,35
0,55,257761,257881,120,35
0,55,258240,258361,121,30
0,55,258720,258842,122,34
0,55,262680,262800,120,42
0,55,262920,263041,121,42
0,55,275521,275640,119,48
0,55,276000,276121,121,49
0,55,279360,279480,120,52
0,55,279840,279960,120,49
0,55,286080,287040,960,40
0,56,22801,22920,119,30
0,56,33600,33841,241,34
0,56,35041,35281,240,30
0,56,37440,37920,480,33
0,56,41280,41521,241,34
0,56,42000,42120,120,28
0,56,47521,47641,120,56
0,56,59282,59401,119,39
0,56,66960,67080,120,39
0,56,67922,68041,119,46
0,56,68880,69001,121,46
0,56,97681,97800,119,30
0,56,108480,108722,242,34
0,56,109920,110160,240,30
0,56,112320,112801,481,33
0,56,116160,116401,241,34
0,56,116880,117000,120,28
0,56,122400,122520,120,57
0,56,134160,134280,120,39
0,56,141842,141961,119,39
0,56,142800,142920,120,46
0,56,143761,143881,120,46
0,56,166800,166920,120,52
0,56,167040,168001,961,66
0,56,175920,176040,120,45
0,56,176401,176520,119,45
0,56,216480,216601,121,34
0,56,216720,216840,120,34
0,57,5281,5340,59,37
0,57,11042,11280,238,37
0,57,15360,15481,121,37
0,57,15840,15960,120,35
0,57,16320,16440,120,36
0,57,18840,18974,134,40
0,57,20400,20520,120,37
0,57,20640,20761,121,37
0,57,20880,21001,121,37
0,57,23041,23280,239,46
0,57,24962,25201,239,51
0,57,26880,27120,240,60
0,57,27360,27601,241,60
0,57,27842,28080,238,61
0,57,28321,28560,239,62
0,57,29041,29131,90,55
0,57,29282,29371,89,55
0,57,29521,29612,91,55
0,57,29761,30180,419,58
0,57,30720,30960,240,34
0,57,32160,32400,240,29
0,57,35520,35760,240,34
0,57,36241,36480,239,26
0,57,36722,36960,238,27
0,57,37200,37440,240,27
0,57,38401,38640,239,34
0,57,39840,40080,240,29
0,57,42240,42721,481,30
0,57,44160,44640,480,38
0,57,46800,46920,120,50
0,57,47281,47401,120,50
0,57,48000,48120,120,45
0,57,53280,53400,120,35
0,57,53520,53641,121,31
0,57,57120,57240,120,45
0,57,57360,57481,121,40
0,57,58801,58920,119,41
0,57,59520,59640,120,48
0,57,60961,61080,119,35
0,57,61200,61320,120,31
0,57,64801,64921,120,45
0,57,65040,65160,120,40
0,57,66480,66602,122,41
0,57,67200,67680,480,45
0,57,68161,68640,479,45
0,57,69121,69361,240,52
0,57,72960,73440,480,39
0,57,80162,80220,58,37
0,57,85922,86160,238,37
0,57,90240,90360,120,37
0,57,90720,90840,120,35
0,57,91200,91320,120,36
0,57,93720,93854,134,40
0,57,95282,95400,118,37
0,57,95520,95640,120,37
0,57,95761,95882,121,37
0,57,97922,98160,238,46
0,57,99840,100080,240,51
0,57,101761,102000,239,60
0,57,102240,102480,240,60
0,57,102721,102960,239,61
0,57,103200,103440,240,62
0,57,103921,104010,89,55
0,57,104161,104251,90,55
0,57,104402,104492,90,55
0,57,104640,105060,420,58
0,57,105600,105840,240,34
0,57,107040,107280,240,29
0,57,110400,110641,241,34
0,57,111120,111360,240,26
0,57,111601,111841,240,27
0,57,112082,112320,238,27
0,57,113280,113520,240,34
0,57,114720,114960,240,29
0,57,117120,117601,481,30
0,57,119041,119520,479,38
0,57,121682,121800,118,52
0,57,122161,122280,119,51
0,57,122880,123000,120,56
0,57,128161,128280,119,35
0,57,128400,128520,120,31
0,57,132001,132121,120,45
0,57,132240,132360,120,40
0,57,133680,133802,122,41
0,57,134400,134521,121,48
0,57,135840,135960,120,35
0,57,136081,136201,120,31
0,57,139680,139800,120,45
0,57,139920,140041,121,40
0,57,141361,141480,119,41
0,57,142080,142560,480,45
0,57,143040,143520,480,45
0,57,144000,144240,240,52
0,57,147840,148320,480,39
0,57,159360,161280,1920,44
0,57,166320,166441,121,50
0,57,166560,166800,240,60
0,57,169200,169321,121,42
0,57,169440,169680,240,53
0,57,181440,181921,481,58
0,57,185280,185400,120,42
0,57,185521,185640,119,36
0,57,189120,189240,120,37
0,57,189361,189480,119,32
0,57,190200,190320,120,32
0,57,190441,190561,120,32
0,57,190680,190800,120,32
0,57,190920,191040,120,32
0,57,192960,193080,120,42
0,57,193201,193320,119,36
0,57,196800,196920,120,37
0,57,197041,197160,119,32
0,57,197880,198000,120,32
0,57,198120,198240,120,32
0,57,198361,198481,120,32
0,57,198601,198721,120,32
0,57,203520,204001,481,50
0,57,204241,204360,119,50
0,57,204480,204960,480,52
0,57,205200,205320,120,50
0,57,205440,205920,480,54
0,57,213840,213960,120,57
0,57,216961,217202,241,48
0,57,218881,219121,240,53
0,57,220800,221040,240,60
0,57,221281,221520,239,60
0,57,221762,222001,239,61
0,57,222241,222480,239,62
0,57,222960,223050,90,55
0,57,223200,223290,90,55
0,57,223441,223531,90,55
0,57,223681,224101,420,58
0,57,228000,228240,240,30
0,57,230400,230641,241,34
0,57,231360,231840,480,33
0,57,235681,235921,240,30
0,57,238081,238320,239,33
0,57,239040,239280,240,24
0,57,243602,243720,118,47
0,57,254400,254521,121,39
0,57,254881,255001,120,44
0,57,268322,268380,58,37
0,57,274082,274320,238,37
0,57,274800,274920,120,39
0,57,275280,275400,120,40
0,57,276480,276600,120,47
0,57,276961,277081,120,48
0,57,277440,277561,121,48
0,57,277921,278041,120,49
0,57,278641,278760,119,41
0,57,279120,279240,120,42
0,57,280321,280440,119,47
0,57,280800,280920,120,48
0,57,281280,281400,120,47
0,57,281760,281881,121,48
0,57,282961,283081,120,46
0,57,283921,284041,120,46
0,57,287040,288000,960,40
0,58,168001,168960,959,61
0,58,174960,175081,121,45
0,58,175440,175560,120,45
0,58,212880,213000,120,57
0,58,213360,213480,120,57
0,58,237120,237361,241,32
0,58,284640,284880,240,63
0,59,15240,15372,132,40
0,59,18962,19092,130,41
0,59,21120,21600,480,44
0,59,22320,22441,121,36
0,59,22560,22680,120,36
0,59,22801,22920,119,36
0,59,31201,31440,239,30
0,59,32640,32880,240,34
0,59,33360,33600,240,28
0,59,33841,34080,239,29
0,59,38880,39120,240,30
0,59,40320,40560,240,34
0,59,41040,41280,240,28
0,59,41521,41640,119,29
0,59,43680,44160,480,30
0,59,47040,47160,120,56
0,59,52801,52920,119,35
0,59,53042,53160,118,30
0,59,56640,56760,120,45
0,59,56882,57000,118,39
0,59,57720,57841,121,39
0,59,57960,58080,120,39
0,59,58201,58321,120,39
0,59,58441,58561,120,39
0,59,60480,60601,121,35
0,59,60721,60840,119,30
0,59,64320,64441,121,45
0,59,64561,64681,120,39
0,59,65401,65520,119,39
0,59,65640,65760,120,39
0,59,65880,66002,122,39
0,59,66120,66240,120,39
0,59,67922,68041,119,55
0,59,68880,69001,121,55
0,59,72720,72841,121,34
0,59,72960,73920,960,37
0,59,90120,90252,132,40
0,59,93842,93972,130,41
0,59,96001,96481,480,44
0,59,97201,97320,119,36
0,59,97440,97560,120,36
0,59,97681,97800,119,36
0,59,106081,106321,240,30
0,59,107520,107761,241,34
0,59,108240,108480,240,28
0,59,108722,108960,238,29
0,59,113761,114000,239,30
0,59,115200,115440,240,34
0,59,115920,116160,240,28
0,59,116401,116520,119,29
0,59,118560,119041,481,30
0,59,121920,122040,120,57
0,59,127680,127801,121,35
0,59,127921,128040,119,30
0,59,131520,131641,121,45
0,59,131761,131881,120,39
0,59,132601,132720,119,39
0,59,132840,132960,120,39
0,59,133080,133202,122,39
0,59,133320,133440,120,39
0,59,135361,135480,119,35
0,59,135602,135720,118,30
0,59,139200,139320,120,45
0,59,139442,139560,118,39
0,59,140280,140401,121,39
0,59,140520,140640,120,39
0,59,140761,140881,120,39
0,59,141001,141121,120,39
0,59,142800,142920,120,55
0,59,143761,143881,120,55
0,59,147600,147721,121,34
0,59,147840,148801,961,37
0,59,151682,153600,1918,44
0,59,165840,165960,120,46
0,59,166080,166320,240,58
0,59,168960,169200,240,47
0,59,173040,173160,120,41
0,59,173521,173641,120,41
0,59,174000,174121,121,41
0,59,174480,174600,120,41
0,59,180480,181440,960,65
0,59,184801,184920,119,42
0,59,185040,185160,120,34
0,59,188160,188281,121,44
0,59,188641,188761,120,37
0,59,188882,189000,118,30
0,59,191161,191280,119,34
0,59,191402,191521,119,34
0,59,192240,192361,121,29
0,59,192481,192601,120,42
0,59,192722,192840,118,34
0,59,195840,195960,120,44
0,59,196320,196440,120,37
0,59,196561,196680,119,30
0,59,198840,198960,120,34
0,59,199080,199200,120,34
0,59,199680,200161,481,52
0,59,206160,206281,121,54
0,59,206400,206880,480,56
0,59,207120,207241,121,53
0,59,207360,207840,480,60
0,59,213121,213240,119,66
0,59,213600,213721,121,63
0,59,214080,214561,481,64
0,59,229920,230160,240,29
0,59,253680,253801,121,39
0,59,254160,254280,120,39
0,59,275762,275881,119,40
0,59,276240,276360,120,40
0,59,279600,279721,121,43
0,59,280081,280200,119,40
0,59,285120,285361,241,63
0,60,186241,186360,119,42
0,60,186720,186841,121,42
0,60,187201,187320,119,36
0,60,187680,187800,120,40
0,60,191641,191760,119,32
0,60,191880,192001,121,32
0,60,193920,194040,120,42
0,60,194401,194520,119,42
0,60,194880,195000,120,36
0,60,195360,195480,120,40
0,60,199320,199442,122,32
0,60,199561,199680,119,32
0,60,213840,213960,120,57
0,60,236640,236880,240,30
0,61,5520,5581,61,30
0,61,11280,11520,240,32
0,61,15120,15252,132,40
0,61,15600,15720,120,26
0,61,16081,16201,120,28
0,61,16562,16681,119,26
0,61,17040,17160,120,30
0,61,19080,19212,132,42
0,61,30960,31201,241,27
0,61,31680,31921,241,32
0,61,32400,32640,240,26
0,61,34560,34801,241,34
0,61,36960,37200,240,30
0,61,38640,38880,240,27
0,61,39360,39601,241,32
0,61,40080,40200,120,26
0,61,43201,43680,479,30
0,61,49920,50040,120,39
0,61,51840,52320,480,41
0,61,52320,52440,120,35
0,61,52561,52680,119,29
0,61,55680,55800,120,37
0,61,56160,56280,120,45
0,61,56401,56520,119,37
0,61,58680,58801,121,41
0,61,58920,59040,120,41
0,61,59761,59881,120,36
0,61,60001,60121,120,35
0,61,60242,60360,118,29
0,61,63360,63480,120,37
0,61,63840,63960,120,45
0,61,64082,64200,118,37
0,61,66361,66480,119,41
0,61,66602,66720,118,41
0,61,67200,67680,480,54
0,61,68161,68640,479,54
0,61,69121,69361,240,63
0,61,72240,72360,120,34
0,61,72480,72720,240,39
0,61,73920,74400,480,35
0,61,80400,80460,60,30
0,61,86160,86400,240,32
0,61,90002,90132,130,40
0,61,90480,90600,120,26
0,61,90960,91082,122,28
0,61,91441,91560,119,26
0,61,91922,92042,120,30
0,61,93960,94092,132,42
0,61,105840,106081,241,27
0,61,106561,106802,241,32
0,61,107280,107520,240,26
0,61,109440,109681,241,34
0,61,111841,112082,241,30
0,61,113520,113761,241,27
0,61,114240,114481,241,32
0,61,114960,115080,120,26
0,61,118080,118560,480,30
0,61,124800,124920,120,39
0,61,126720,127201,481,41
0,61,127201,127321,120,35
0,61,127442,127560,118,29
0,61,130560,130680,120,37
0,61,131040,131160,120,45
0,61,131282,131400,118,37
0,61,133561,133680,119,41
0,61,133802,133920,118,41
0,61,134641,134762,121,36
0,61,134880,135000,120,35
0,61,135121,135241,120,29
0,61,138240,138360,120,37
0,61,138720,138840,120,45
0,61,138961,139080,119,37
0,61,141242,141361,119,41
0,61,141480,141600,120,41
0,61,142080,142560,480,54
0,61,143040,143520,480,54
0,61,144000,144240,240,63
0,61,147121,147241,120,34
0,61,147360,147600,240,39
0,61,148801,149280,479,35
0,61,162721,162960,239,36
0,61,165361,165480,119,42
0,61,165601,165840,239,53
0,61,174841,174960,119,39
0,61,175081,175200,119,38
0,61,175321,175440,119,39
0,61,175560,175680,120,38
0,61,178321,178440,119,34
0,61,178560,179520,960,37
0,61,208080,208201,121,55
0,61,209041,209160,119,57
0,61,211921,212040,119,56
0,61,212400,212520,120,57
0,61,227521,227762,241,34
0,61,228960,229200,240,30
0,61,231360,231840,480,33
0,61,235201,235442,241,34
0,61,235921,236041,120,28
0,61,239040,239280,240,31
0,61,243361,243481,120,54
0,61,255120,255240,120,39
0,61,257520,257640,120,30
0,61,258000,258120,120,30
0,61,258480,258602,122,32
0,61,258961,259081,120,30
0,61,259440,259561,121,28
0,61,268560,268620,60,30
0,61,274320,274561,241,32
0,62,960,1440,480,37
0,62,4081,4321,240,32
0,62,4560,4800,240,33
0,62,5041,5281,240,32
0,62,5760,6240,480,42
0,62,6720,7200,480,37
0,62,9841,10081,240,32
0,62,10320,10560,240,33
0,62,10801,11042,241,32
0,62,11520,11640,120,37
0,62,12000,12120,120,35
0,62,12480,12600,120,36
0,62,12960,13081,121,35
0,62,15000,15133,133,40
0,62,17522,17641,119,29
0,62,18000,18120,120,29
0,62,19200,19680,480,44
0,62,31440,31680,240,27
0,62,33120,33360,240,32
0,62,34320,34560,240,28
0,62,39120,39360,240,27
0,62,40800,41040,240,32
0,62,42721,43201,480,30
0,62,48960,49081,121,47
0,62,49200,49320,120,41
0,62,49440,49560,120,49
0,62,49681,49800,119,41
0,62,50881,51000,119,47
0,62,51120,51240,120,41
0,62,51361,51480,119,49
0,62,51600,51720,120,41
0,62,53760,53880,120,35
0,62,54240,54360,120,35
0,62,54720,54842,122,30
0,62,55200,55320,120,34
0,62,59160,59282,122,39
0,62,59401,59520,119,39
0,62,61440,61561,121,35
0,62,61921,62040,119,35
0,62,62400,62521,121,30
0,62,62880,63002,122,34
0,62,66841,66960,119,39
0,62,67080,67200,120,39
0,62,71761,71881,120,35
0,62,72001,72240,239,39
0,62,72960,73920,960,45
0,62,75841,76320,479,37
0,62,78961,79201,240,32
0,62,79442,79680,238,33
0,62,79920,80162,242,32
0,62,80640,81121,481,42
0,62,81601,82080,479,37
0,62,84721,84961,240,32
0,62,85202,85440,238,33
0,62,85680,85922,242,32
0,62,86400,86521,121,37
0,62,86880,87000,120,35
0,62,87360,87480,120,36
0,62,87842,87961,119,35
0,62,89880,90014,134,40
0,62,92400,92520,120,29
0,62,92880,93000,120,29
0,62,94080,94560,480,44
0,62,106321,106561,240,27
0,62,108001,108240,239,32
0,62,109200,109440,240,28
0,62,114000,114240,240,27
0,62,115680,115920,240,32
0,62,117601,118080,479,30
0,62,123840,123961,121,47
0,62,124080,124200,120,41
0,62,124320,124440,120,49
0,62,124561,124680,119,41
0,62,125760,125881,121,47
0,62,126001,126120,119,41
0,62,126241,126360,119,49
0,62,126481,126601,120,41
0,62,128640,128761,121,35
0,62,129121,129240,119,35
0,62,129600,129721,121,30
0,62,130080,130202,122,34
0,62,134041,134160,119,39
0,62,134280,134400,120,39
0,62,136320,136440,120,35
0,62,136800,136920,120,35
0,62,137280,137402,122,30
0,62,137760,137880,120,34
0,62,141720,141842,122,39
0,62,141961,142080,119,39
0,62,146640,146760,120,35
0,62,146881,147121,240,39
0,62,147840,148801,961,45
0,62,165120,165361,241,47
0,62,172921,173040,119,36
0,62,173160,173280,120,35
0,62,173400,173521,121,36
0,62,173641,173760,119,35
0,62,173880,174000,120,36
0,62,174121,174241,120,35
0,62,174361,174480,119,36
0,62,174600,174720,120,35
0,62,175801,175920,119,39
0,62,176040,176162,122,38
0,62,176280,176401,121,39
0,62,176520,176640,120,38
0,62,177841,177960,119,34
0,62,178080,178321,241,39
0,62,179520,180001,481,35
0,62,180480,181440,960,57
0,62,181440,181921,481,51
0,62,192120,192240,120,34
0,62,192361,192481,120,29
0,62,200401,200520,119,48
0,62,200641,201120,479,52
0,62,201360,201480,120,47
0,62,201602,202080,478,51
0,62,202320,202441,121,46
0,62,202560,202680,120,50
0,62,202801,202921,120,46
0,62,203040,203160,120,46
0,62,208321,208800,479,62
0,62,209280,209761,481,62
0,62,212160,212280,120,66
0,62,212642,212761,119,66
0,62,224640,224880,240,30
0,62,226080,226320,240,29
0,62,229440,229681,241,34
0,62,230160,230400,240,26
0,62,230641,230881,240,27
0,62,231122,231360,238,27
0,62,232320,232560,240,34
0,62,233761,234001,240,29
0,62,236161,236400,239,34
0,62,237840,238081,241,26
0,62,238320,238560,240,22
0,62,238802,239040,238,24
0,62,242641,242760,119,49
0,62,243121,243241,120,48
0,62,243840,243960,120,52
0,62,249120,249240,120,35
0,62,249360,249480,120,31
0,62,252961,253080,119,45
0,62,253200,253320,120,40
0,62,254640,254762,122,41
0,62,255361,255481,120,48
0,62,255600,255721,121,36
0,62,255960,256080,120,29
0,62,256200,256320,120,29
0,62,256440,256561,121,30
0,62,256680,256800,120,30
0,62,256920,257040,120,31
0,62,257160,257281,121,31
0,62,257400,257520,120,30
0,62,257640,257761,121,30
0,62,257881,258000,119,30
0,62,258120,258240,120,30
0,62,258361,258480,119,32
0,62,258602,258720,118,32
0,62,258842,258961,119,30
0,62,259081,259201,120,30
0,62,259320,259440,120,37
0,62,259561,259680,119,28
0,62,264001,264480,479,37
0,62,267121,267361,240,32
0,62,267600,267840,240,33
0,62,268081,268322,241,32
0,62,268800,269280,480,42
0,62,269761,269880,119,37
0,62,270000,270122,122,31
0,62,272881,273121,240,32
0,62,273362,273600,238,33
0,62,273840,274082,242,32
0,62,274681,274800,119,39
0,62,274920,275040,120,39
0,62,275162,275280,118,40
0,62,275400,275521,121,40
0,62,275640,275762,122,40
0,62,275881,276000,119,40
0,62,276121,276240,119,40
0,62,276360,276480,120,40
0,62,276720,276840,120,38
0,62,277200,277320,120,40
0,62,278520,278641,121,39
0,62,278760,278880,120,42
0,62,279000,279120,120,41
0,62,279240,279360,120,44
0,62,279480,279600,120,43
0,62,279721,279840,119,43
0,62,279960,280081,121,40
0,62,280200,280321,121,40
0,62,280560,280681,121,37
0,62,281041,281160,119,39
0,62,282242,282721,479,45
0,62,283200,283680,480,45
0,62,284160,284400,240,52
0,63,48240,48360,120,37
0,63,48721,48840,119,40
0,63,50161,50281,120,37
0,63,50642,50761,119,40
0,63,123121,123241,120,37
0,63,123600,123720,120,40
0,63,125041,125161,120,37
0,63,125520,125640,120,40
0,63,155040,155281,241,36
0,63,210960,211080,120,53
0,63,211440,211561,121,56
0,64,1440,1920,480,37
0,64,7200,7680,480,37
0,64,13440,13560,120,37
0,64,13920,14040,120,37
0,64,14400,14533,133,43
0,64,14880,15012,132,38
0,64,31921,32160,239,26
0,64,34801,35041,240,28
0,64,35281,35520,239,28
0,64,35760,36001,241,26
0,64,39601,39720,119,26
0,64,45841,45960,119,48
0,64,48120,48240,120,35
0,64,48360,48480,120,34
0,64,48600,48721,121,37
0,64,48840,48960,120,40
0,64,49081,49200,119,39
0,64,49320,49440,120,39
0,64,49560,49681,121,39
0,64,49800,49920,120,39
0,64,50040,50161,121,35
0,64,50281,50401,120,34
0,64,50521,50642,121,37
0,64,50761,50881,120,40
0,64,51000,51120,120,39
0,64,51240,51361,121,39
0,64,51480,51600,120,39
0,64,51720,51840,120,39
0,64,59640,59761,121,42
0,64,59881,60001,120,36
0,64,67321,67441,120,59
0,64,68281,68401,120,59
0,64,71280,71401,121,36
0,64,71521,71761,240,39
0,64,76320,76800,480,37
0,64,82080,82560,480,37
0,64,88320,88440,120,37
0,64,88800,88920,120,37
0,64,89280,89412,132,43
0,64,89760,89892,132,38
0,64,106802,107040,238,26
0,64,109681,109920,239,28
0,64,110160,110400,240,28
0,64,110641,110880,239,26
0,64,114481,114600,119,26
0,64,120721,120841,120,53
0,64,123000,123121,121,35
0,64,123241,123361,120,34
0,64,123480,123600,120,37
0,64,123720,123840,120,40
0,64,123961,124080,119,39
0,64,124200,124320,120,39
0,64,124440,124561,121,39
0,64,124680,124800,120,39
0,64,124920,125041,121,35
0,64,125161,125281,120,34
0,64,125401,125520,119,37
0,64,125640,125760,120,40
0,64,125881,126001,120,39
0,64,126120,126241,121,39
0,64,126360,126481,121,39
0,64,126601,126720,119,39
0,64,134521,134641,120,42
0,64,134762,134880,118,36
0,64,142200,142322,122,59
0,64,143161,143280,119,59
0,64,146160,146281,121,36
0,64,146401,146640,239,39
0,64,161041,161160,119,48
0,64,177360,177480,120,35
0,64,177602,177841,239,39
0,64,178560,179520,960,45
0,64,211200,211320,120,62
0,64,211681,211800,119,64
0,64,215040,215161,121,50
0,64,215280,215400,120,40
0,64,215521,215640,119,40
0,64,215760,215881,121,40
0,64,216000,216120,120,50
0,64,216240,216362,122,40
0,64,216480,216601,121,40
0,64,216720,216840,120,40
0,64,225121,225361,240,30
0,64,226560,226801,241,34
0,64,227280,227521,241,28
0,64,227762,228000,238,29
0,64,232800,233041,241,30
0,64,234240,234481,241,34
0,64,234961,235201,240,28
0,64,235442,235561,119,29
0,64,237600,237840,240,29
0,64,242880,243000,120,55
0,64,248640,248760,120,35
0,64,248881,249000,119,30
0,64,252480,252600,120,45
0,64,252721,252840,119,39
0,64,253560,253680,120,39
0,64,253801,253921,120,39
0,64,254040,254160,120,39
0,64,254280,254400,120,39
0,64,261120,261480,360,57
0,64,264480,264961,481,37
0,64,270240,270362,122,37
0,64,270480,270600,120,31
0,64,277681,277801,120,39
0,64,278160,278280,120,40
0,64,281521,281641,120,37
0,64,282000,282120,120,38
0,64,282961,283081,120,55
0,64,283921,284041,120,55
0,64,287760,287881,121,34
0,64,288000,288961,961,37
0,65,232560,232800,240,27
0,65,233280,233520,240,32
0,65,234001,234121,120,26
0,65,237361,237600,239,26
0,65,238560,238802,242,28
0,66,0,480,480,60
0,66,960,1440,480,45
0,66,1920,2400,480,37
0,66,6720,7200,480,45
0,66,7680,8160,480,37
0,66,11760,11880,120,26
0,66,12240,12361,121,28
0,66,12722,12841,119,26
0,66,13200,13320,120,30
0,66,14521,14652,131,38
0,66,14760,14892,132,38
0,66,32880,33120,240,28
0,66,40560,40800,240,28
0,66,42721,43080,359,45
0,66,44000,44081,81,40
0,66,48480,48600,120,40
0,66,50401,50521,120,40
0,66,71040,71280,240,39
0,66,74880,75360,480,60
0,66,75841,76320,479,45
0,66,76800,77280,480,37
0,66,81601,82080,479,45
0,66,82560,83040,480,37
0,66,86640,86760,120,26
0,66,87121,87241,120,28
0,66,87602,87721,119,26
0,66,88080,88200,120,30
0,66,89401,89532,131,38
0,66,89640,89772,132,38
0,66,107761,108001,240,28
0,66,115440,115680,240,28
0,66,117601,117960,359,45
0,66,118880,118960,80,40
0,66,123361,123480,119,40
0,66,125281,125401,120,40
0,66,145920,146160,240,39
0,66,153360,153480,120,44
0,66,160560,160680,120,53
0,66,160800,161041,241,63
0,66,161760,162000,240,36
0,66,176880,177001,121,36
0,66,177120,177360,240,39
0,66,180480,181440,960,57
0,66,181440,181921,481,51
0,66,186480,186600,120,36
0,66,186961,187080,119,36
0,66,187440,187560,120,38
0,66,187920,188040,120,36
0,66,188400,188520,120,33
0,66,194160,194281,121,36
0,66,194640,194760,120,36
0,66,195121,195241,120,38
0,66,195600,195720,120,36
0,66,196080,196200,120,33
0,66,200040,200161,121,52
0,66,201000,201120,120,52
0,66,201961,202080,119,52
0,66,210001,210121,120,54
0,66,210482,210600,118,56
0,66,224880,225121,241,23
0,66,225601,225842,241,32
0,66,226320,226560,240,26
0,66,228480,228720,240,34
0,66,230881,231122,241,30
0,66,245761,245881,120,39
0,66,247680,248160,480,41
0,66,248160,248280,120,35
0,66,248401,248520,119,29
0,66,251520,251641,121,37
0,66,252001,252121,120,45
0,66,252242,252360,118,37
0,66,254521,254640,119,41
0,66,254762,254881,119,41
0,66,255481,255600,119,42
0,66,255721,255841,120,36
0,66,256800,257281,481,46
0,66,260640,261120,480,55
0,66,263041,263520,479,62
0,66,264001,264480,479,45
0,66,264961,265440,479,37
0,66,269761,269880,119,45
0,66,270000,270122,122,38
0,66,270720,271200,480,37
0,66,276600,276720,120,38
0,66,276840,276961,121,38
0,66,277081,277200,119,40
0,66,277320,277440,120,40
0,66,280440,280560,120,37
0,66,280681,280800,119,37
0,66,280920,281041,121,39
0,66,281160,281280,120,39
0,66,282242,282721,479,54
0,66,283200,283680,480,54
0,66,284160,284400,240,63
0,66,287281,287401,120,34
0,66,287520,287760,240,39
0,66,288961,289441,480,35
0,67,1440,1920,480,45
0,67,7200,7680,480,45
0,67,13682,13802,120,29
0,67,14160,14280,120,29
0,67,14641,14772,131,38
0,67,76320,76800,480,45
0,67,82080,82560,480,45
0,67,88562,88681,119,29
0,67,89040,89160,120,29
0,67,89521,89652,131,38
0,67,152880,153000,120,49
0,67,153121,153360,239,58
0,67,154081,154320,239,36
0,67,160080,160200,120,58
0,67,160320,160560,240,63
0,67,176640,176880,240,39
0,67,184920,185040,120,34
0,67,185160,185280,120,34
0,67,185400,185521,121,36
0,67,185640,185760,120,36
0,67,185880,186000,120,37
0,67,186120,186241,121,37
0,67,186360,186480,120,36
0,67,186600,186720,120,36
0,67,186841,186961,120,36
0,67,187080,187201,121,36
0,67,187320,187440,120,38
0,67,187560,187680,120,38
0,67,187800,187920,120,36
0,67,188040,188160,120,36
0,67,188281,188400,119,44
0,67,188520,188641,121,33
0,67,188761,188882,121,30
0,67,189000,189120,120,30
0,67,189240,189361,121,32
0,67,189480,189601,121,32
0,67,189720,189840,120,33
0,67,189960,190080,120,33
0,67,191040,191521,481,52
0,67,191841,191920,79,39
0,67,192001,192240,239,54
0,67,192601,192722,121,34
0,67,192840,192960,120,34
0,67,193080,193201,121,36
0,67,193320,193441,121,36
0,67,193560,193680,120,37
0,67,193800,193920,120,37
0,67,194040,194160,120,36
0,67,194281,194401,120,36
0,67,194520,194640,120,36
0,67,194760,194880,120,36
0,67,195000,195121,121,38
0,67,195241,195360,119,38
0,67,195480,195600,120,36
0,67,195720,195840,120,36
0,67,195960,196080,120,44
0,67,196200,196320,120,33
0,67,196440,196561,121,30
0,67,196680,196800,120,30
0,67,196920,197041,121,32
0,67,197160,197280,120,32
0,67,197400,197520,120,33
0,67,197640,197761,121,33
0,67,198721,199200,479,52
0,67,199520,199600,80,39
0,67,199680,199800,120,59
0,67,199920,200040,120,59
0,67,200161,200281,120,59
0,67,200881,201000,119,59
0,67,201120,201240,120,59
0,67,201840,201961,121,59
0,67,202080,202201,121,59
0,67,210241,210361,120,62
0,67,210720,210840,120,61
0,67,225361,225601,240,27
0,67,227041,227280,239,32
0,67,228240,228480,240,28
0,67,233041,233280,239,27
0,67,234720,234961,241,32
0,67,244801,244920,119,47
0,67,245040,245160,120,41
0,67,245280,245400,120,49
0,67,245521,245641,120,44
0,67,246721,246840,119,47
0,67,246962,247081,119,44
0,67,247200,247321,121,49
0,67,247440,247560,120,47
0,67,249601,249720,119,35
0,67,250080,250201,121,35
0,67,250561,250680,119,30
0,67,251040,251160,120,34
0,67,255001,255120,119,39
0,67,255240,255361,121,39
0,67,256320,256800,480,47
0,67,260161,260640,479,56
0,67,264480,264961,481,45
0,67,270240,270362,122,45
0,67,270480,270600,120,38
0,67,277561,277681,120,39
0,67,277801,277921,120,39
0,67,278041,278160,119,40
0,67,278280,278400,120,40
0,67,281400,281521,121,37
0,67,281641,281760,119,37
0,67,281881,282000,119,38
0,67,282120,282242,122,38
0,67,286800,286920,120,35
0,67,287040,287281,241,39
0,67,288000,288961,961,45
0,68,34560,34801,241,48
0,68,43680,43740,60,43
0,68,43800,43860,60,43
0,68,43920,44000,80,43
0,68,44081,44160,79,40
0,68,45600,45720,120,56
0,68,54001,54120,119,30
0,68,54481,54601,120,30
0,68,54961,55081,120,32
0,68,55440,55560,120,30
0,68,55920,56040,120,28
0,68,61680,61801,121,30
0,68,62162,62280,118,30
0,68,62640,62761,121,32
0,68,63121,63241,120,30
0,68,63600,63720,120,28
0,68,72720,72841,121,41
0,68,72960,73920,960,54
0,68,109440,109681,241,48
0,68,118560,118622,62,43
0,68,118680,118740,60,43
0,68,118801,118880,79,43
0,68,118960,119041,81,40
0,68,120480,120600,120,58
0,68,128880,129001,121,30
0,68,129362,129480,118,30
0,68,129840,129961,121,32
0,68,130321,130441,120,30
0,68,130800,130920,120,28
0,68,136561,136680,119,30
0,68,137041,137161,120,30
0,68,137521,137641,120,32
0,68,138000,138120,120,30
0,68,138482,138600,118,28
0,68,147600,147721,121,41
0,68,147840,148801,961,54
0,68,244080,244200,120,42
0,68,244561,244680,119,44
0,68,246000,246120,120,41
0,68,246481,246600,119,44
0,69,0,480,480,60
0,69,1920,2400,480,45
0,69,7680,8160,480,45
0,69,12000,12120,120,42
0,69,13920,14040,120,42
0,69,15840,15960,120,42
0,69,17760,17880,120,42
0,69,23401,23532,131,40
0,69,25320,25452,132,44
0,69,27240,27360,120,63
0,69,28200,28321,121,64
0,69,34801,35041,240,44
0,69,43201,43680,479,45
0,69,43740,43800,60,39
0,69,43860,43920,60,40
0,69,44160,44281,121,46
0,69,44881,45000,119,49
0,69,45360,45480,120,49
0,69,46080,46561,481,55
0,69,48000,48480,480,41
0,69,52440,52561,121,29
0,69,52680,52801,121,29
0,69,52920,53042,122,30
0,69,53160,53280,120,30
0,69,53400,53520,120,31
0,69,53641,53760,119,31
0,69,53880,54001,121,30
0,69,54120,54240,120,30
0,69,54360,54481,121,30
0,69,54601,54720,119,30
0,69,54842,54961,119,32
0,69,55081,55200,119,32
0,69,55320,55440,120,30
0,69,55560,55680,120,30
0,69,55800,55920,120,37
0,69,56040,56160,120,28
0,69,56280,56401,121,37
0,69,56520,56640,120,37
0,69,56760,56882,122,39
0,69,57000,57120,120,39
0,69,57240,57360,120,40
0,69,57481,57601,120,40
0,69,58561,59040,479,63
0,69,59360,59440,80,48
0,69,59520,59761,241,66
0,69,60121,60242,121,29
0,69,60360,60480,120,29
0,69,60601,60721,120,30
0,69,60840,60961,121,30
0,69,61080,61200,120,31
0,69,61320,61440,120,31
0,69,61561,61680,119,30
0,69,61801,61921,120,30
0,69,62040,62162,122,30
0,69,62280,62400,120,30
0,69,62521,62640,119,32
0,69,62761,62880,119,32
0,69,63002,63121,119,30
0,69,63241,63360,119,30
0,69,63480,63600,120,37
0,69,63720,63840,120,28
0,69,63960,64082,122,37
0,69,64200,64320,120,37
0,69,64441,64561,120,39
0,69,64681,64801,120,39
0,69,64921,65040,119,40
0,69,65160,65280,120,40
0,69,66240,66720,480,63
0,69,67041,67120,79,48
0,69,67200,67321,121,66
0,69,67441,67561,120,66
0,69,68161,68281,120,66
0,69,68401,68521,120,66
0,69,69121,69361,240,75
0,69,70080,70321,241,64
0,69,72240,72360,120,41
0,69,72480,72720,240,47
0,69,73920,74400,480,42
0,69,74880,75360,480,60
0,69,76800,77280,480,45
0,69,82560,83040,480,45
0,69,86880,87000,120,42
0,69,88800,88920,120,42
0,69,90720,90840,120,42
0,69,92640,92760,120,42
0,69,98280,98412,132,40
0,69,100200,100334,134,47
0,69,102121,102240,119,63
0,69,103081,103200,119,62
0,69,109681,109920,239,44
0,69,118080,118560,480,45
0,69,118622,118680,58,39
0,69,118740,118801,61,40
0,69,119041,119161,120,46
0,69,119761,119880,119,51
0,69,120240,120360,120,51
0,69,120961,121440,479,55
0,69,122880,123361,481,41
0,69,127321,127442,121,29
0,69,127560,127680,120,29
0,69,127801,127921,120,30
0,69,128040,128161,121,30
0,69,128280,128400,120,31
0,69,128520,128640,120,31
0,69,128761,128880,119,30
0,69,129001,129121,120,30
0,69,129240,129362,122,30
0,69,129480,129600,120,30
0,69,129721,129840,119,32
0,69,129961,130080,119,32
0,69,130202,130321,119,30
0,69,130441,130560,119,30
0,69,130680,130800,120,37
0,69,130920,131040,120,28
0,69,131160,131282,122,37
0,69,131400,131520,120,37
0,69,131641,131761,120,39
0,69,131881,132001,120,39
0,69,132121,132240,119,40
0,69,132360,132480,120,40
0,69,133440,133920,480,63
0,69,134241,134320,79,48
0,69,134400,134641,241,66
0,69,135000,135121,121,29
0,69,135241,135361,120,29
0,69,135480,135602,122,30
0,69,135720,135840,120,30
0,69,135960,136081,121,31
0,69,136201,136320,119,31
0,69,136440,136561,121,30
0,69,136680,136800,120,30
0,69,136920,137041,121,30
0,69,137161,137280,119,30
0,69,137402,137521,119,32
0,69,137641,137760,119,32
0,69,137880,138000,120,30
0,69,138120,138240,120,30
0,69,138360,138482,122,37
0,69,138600,138720,120,28
0,69,138840,138961,121,37
0,69,139080,139200,120,37
0,69,139320,139442,122,39
0,69,139560,139680,120,39
0,69,139800,139920,120,40
0,69,140041,140161,120,40
0,69,141121,141600,479,63
0,69,141920,142000,80,48
0,69,142080,142200,120,66
0,69,142322,142440,118,66
0,69,143040,143161,121,66
0,69,143280,143401,121,66
0,69,144000,144240,240,75
0,69,144960,145201,241,64
0,69,147121,147241,120,41
0,69,147360,147600,240,47
0,69,148801,149280,479,42
0,69,152401,152522,121,53
0,69,152641,152880,239,58
0,69,159601,159721,120,60
0,69,159840,160080,240,67
0,69,161760,162000,240,43
0,69,162721,162960,239,43
0,69,190080,190441,361,56
0,69,190920,191040,120,48
0,69,191521,191580,59,45
0,69,191641,191700,59,46
0,69,191760,191841,81,46
0,69,191920,192001,81,39
0,69,197761,198120,359,56
0,69,198601,198721,120,48
0,69,199200,199260,60,45
0,69,199320,199381,61,46
0,69,199442,199520,78,46
0,69,199600,199680,80,39
0,69,199800,199920,120,53
0,69,200401,200520,119,59
0,69,200760,200881,121,53
0,69,201360,201480,120,59
0,69,201721,201840,119,53
0,69,202320,202441,121,59
0,69,202921,203040,119,52
0,69,217321,217452,131,57
0,69,219241,219372,131,55
0,69,221160,221281,121,63
0,69,222120,222241,121,60
0,69,225842,226080,238,26
0,69,228720,228960,240,28
0,69,229200,229440,240,28
0,69,229681,229920,239,26
0,69,233520,233641,121,26
0,69,236400,236640,240,27
0,69,236880,237120,240,27
0,69,241681,241800,119,48
0,69,243960,244080,120,35
0,69,244200,244320,120,38
0,69,244440,244561,121,39
0,69,244680,244801,121,40
0,69,244920,245040,120,39
0,69,245160,245280,120,39
0,69,245400,245521,121,39
0,69,245641,245761,120,39
0,69,245881,246000,119,38
0,69,246120,246240,120,37
0,69,246360,246481,121,37
0,69,246600,246721,121,40
0,69,246840,246962,122,42
0,69,247081,247200,119,39
0,69,247321,247440,119,43
0,69,247560,247680,120,39
0,69,255841,256320,479,50
0,69,257721,257761,40,45
0,69,259201,259440,239,50
0,69,259680,260161,481,56
0,69,263041,263520,479,62
0,69,264961,265440,479,45
0,69,270720,271200,480,45
0,69,282361,282480,119,59
0,69,283320,283441,121,59
0,69,286320,286441,121,36
0,69,286561,286800,239,39
0,70,159360,159601,241,68
0,70,178321,178440,119,41
0,70,178560,179520,960,54
0,70,234481,234720,239,28
0,71,22920,23052,132,44
0,71,30360,30481,121,40
0,71,34320,34560,240,42
0,71,35281,35520,239,45
0,71,37440,37680,240,47
0,71,42000,42120,120,42
0,71,43080,43201,121,41
0,71,45120,45241,121,55
0,71,57601,57960,359,68
0,71,58441,58561,120,58
0,71,59040,59100,60,55
0,71,59160,59221,61,56
0,71,59282,59360,78,56
0,71,59440,59520,80,48
0,71,65280,65640,360,68
0,71,66120,66240,120,58
0,71,66720,66780,60,55
0,71,66841,66900,59,56
0,71,66960,67041,81,56
0,71,67120,67200,80,48
0,71,68041,68161,120,59
0,71,69001,69121,120,59
0,71,69600,69841,241,64
0,71,71761,71881,120,42
0,71,72001,72240,239,47
0,71,97800,97932,132,44
0,71,105242,105361,119,40
0,71,109200,109440,240,42
0,71,110160,110400,240,45
0,71,112320,112560,240,47
0,71,116880,117000,120,42
0,71,117960,118080,120,41
0,71,120001,120120,119,55
0,71,132480,132840,360,68
0,71,133320,133440,120,58
0,71,133920,133980,60,55
0,71,134041,134100,59,56
0,71,134160,134241,81,56
0,71,134320,134400,80,48
0,71,140161,140520,359,68
0,71,141001,141121,120,58
0,71,141600,141661,61,55
0,71,141720,141781,61,56
0,71,141842,141920,78,56
0,71,142000,142080,80,48
0,71,142920,143040,120,59
0,71,143881,144000,119,59
0,71,144480,144720,240,64
0,71,146640,146760,120,42
0,71,146881,147121,240,47
0,71,151921,152041,120,55
0,71,152161,152401,240,61
0,71,154081,154320,239,43
0,71,155040,155281,241,43
0,71,172800,173280,480,41
0,71,176401,176581,180,55
0,71,177841,177960,119,41
0,71,178080,178321,241,47
0,71,179520,180001,481,42
0,71,180480,181440,960,68
0,71,182400,183360,960,39
0,71,185760,186241,481,55
0,71,189601,190080,479,48
0,71,190800,190920,120,48
0,71,191580,191641,61,40
0,71,191700,191760,60,41
0,71,193441,193920,479,55
0,71,197280,197761,481,48
0,71,198481,198601,120,48
0,71,199260,199320,60,40
0,71,199381,199442,61,41
0,71,200281,200401,120,54
0,71,200641,200760,119,59
0,71,201240,201360,120,54
0,71,201602,201721,119,59
0,71,202201,202320,119,54
0,71,202560,202680,120,59
0,71,203040,203160,120,59
0,71,216840,216972,132,64
0,71,226801,227041,240,28
0,71,244320,244440,120,47
0,71,246240,246360,120,40
0,71,257281,257640,359,50
0,71,257680,257720,40,45
0,71,257761,257881,120,50
0,71,258961,259201,240,45
0,71,286080,286320,240,39
0,72,35520,35760,240,50
0,72,110400,110641,241,50
0,72,151682,151921,239,62
0,72,171840,171960,120,63
0,72,172080,172201,121,62
0,72,172320,172440,120,60
0,72,172560,172680,120,59
0,72,181440,181921,481,61
0,72,183360,183840,480,39
0,72,185280,185760,480,56
0,72,189120,189601,481,49
0,72,190680,190800,120,48
0,72,192960,193441,481,56
0,72,196800,197280,480,49
0,72,198361,198481,120,48
0,72,200520,200641,121,53
0,72,201480,201602,122,53
0,72,202441,202560,119,53
0,72,202801,202921,120,59
0,73,13440,13560,120,50
0,73,22801,22934,133,46
0,73,23041,23173,132,50
0,73,23280,23412,132,42
0,73,24962,25093,131,57
0,73,25201,25332,131,44
0,73,26880,27000,120,79
0,73,27120,27240,120,63
0,73,27842,27960,118,77
0,73,28080,28200,120,64
0,73,28801,28891,90,69
0,73,29041,29131,90,60
0,73,29282,29371,89,60
0,73,29521,29612,91,60
0,73,29761,30180,419,60
0,73,30240,30360,120,42
0,73,30481,30600,119,40
0,73,32640,32880,240,48
0,73,34080,34320,240,45
0,73,35760,36001,241,46
0,73,36480,37200,720,51
0,73,37320,37440,120,42
0,73,37680,37801,121,42
0,73,40320,40560,240,48
0,73,41160,41220,60,37
0,73,41760,41880,120,45
0,73,42240,42600,360,45
0,73,46080,46200,120,50
0,73,53280,53760,480,46
0,73,57120,57601,481,59
0,73,58321,58441,120,58
0,73,59100,59160,60,49
0,73,59221,59282,61,50
0,73,60961,61440,479,46
0,73,64801,65280,479,59
0,73,66002,66120,118,58
0,73,66780,66841,61,49
0,73,66900,66960,60,50
0,73,67561,67680,119,58
0,73,67800,67922,122,60
0,73,68521,68640,119,58
0,73,68762,68880,118,60
0,73,70080,70321,241,64
0,73,71280,71401,121,43
0,73,71521,71761,240,47
0,73,88320,88440,120,50
0,73,97681,97813,132,46
0,73,97922,98053,131,50
0,73,98160,98292,132,42
0,73,99840,99972,132,57
0,73,100080,100212,132,47
0,73,101761,101880,119,79
0,73,102000,102121,121,63
0,73,102721,102842,121,77
0,73,102960,103081,121,62
0,73,103682,103772,90,69
0,73,103921,104010,89,60
0,73,104161,104251,90,60
0,73,104402,104492,90,60
0,73,104640,105060,420,60
0,73,105120,105242,122,42
0,73,105361,105480,119,40
0,73,107520,107761,241,48
0,73,108960,109200,240,45
0,73,110641,110880,239,46
0,73,111360,112082,722,51
0,73,112200,112320,120,42
0,73,112560,112681,121,42
0,73,115200,115440,240,48
0,73,116040,116100,60,37
0,73,116640,116760,120,45
0,73,117120,117481,361,45
0,73,120961,121081,120,50
0,73,128161,128640,479,46
0,73,132001,132480,479,59
0,73,133202,133320,118,58
0,73,133980,134041,61,49
0,73,134100,134160,60,50
0,73,135840,136320,480,46
0,73,139680,140161,481,59
0,73,140881,141001,120,58
0,73,141661,141720,59,49
0,73,141781,141842,61,50
0,73,142440,142560,120,58
0,73,142681,142800,119,60
0,73,143401,143520,119,58
0,73,143640,143761,121,60
0,73,144960,145201,241,64
0,73,146160,146281,121,43
0,73,146401,146640,239,47
0,73,159120,159240,120,50
0,73,159360,161280,1920,62
0,73,161280,161520,240,47
0,73,163200,164161,961,57
0,73,170881,171000,119,64
0,73,171121,171241,120,63
0,73,171361,171480,119,63
0,73,171600,171720,120,63
0,73,175920,176100,180,51
0,73,176162,176401,239,61
0,73,177360,177480,120,42
0,73,177602,177841,239,47
0,73,203280,203400,120,59
0,73,203880,204001,121,52
0,73,204840,204960,120,52
0,73,205800,205920,120,52
0,73,212880,213000,120,62
0,73,213360,213480,120,61
0,73,216720,216852,132,65
0,73,216961,217092,131,67
0,73,217202,217332,130,57
0,73,218881,219013,132,68
0,73,219121,219253,132,55
0,73,220800,220920,120,79
0,73,221040,221160,120,63
0,73,221762,221880,118,77
0,73,222001,222120,119,60
0,73,222721,222811,90,69
0,73,222960,223050,90,60
0,73,223200,223290,90,60
0,73,223441,223531,90,60
0,73,223681,224101,420,60
0,73,228480,228720,240,48
0,73,237120,237361,241,46
0,73,241440,241560,120,58
0,73,249840,249960,120,30
0,73,250321,250441,120,30
0,73,250800,250920,120,32
0,73,251280,251400,120,30
0,73,251760,251880,120,28
0,73,257640,257680,40,45
0,73,258000,258120,120,47
0,73,258720,258961,241,47
0,73,278280,278400,120,54
0,73,282120,282242,122,54
0,73,287760,287881,121,41
0,73,288000,288961,961,54
0,74,0,480,480,73
0,74,11520,11640,120,50
0,74,13320,13452,132,44
0,74,17280,17400,120,50
0,74,19320,19453,133,47
0,74,21001,21132,131,49
0,74,22680,22813,133,48
0,74,23160,23292,132,42
0,74,23520,23641,121,47
0,74,24841,24972,131,48
0,74,25082,25213,131,44
0,74,25440,25560,120,57
0,74,26760,26892,132,59
0,74,27720,27842,122,64
0,74,28680,28801,121,64
0,74,30180,30240,60,41
0,74,30600,30720,120,40
0,74,32880,33120,240,42
0,74,33360,33600,240,40
0,74,33841,34080,239,42
0,74,36241,36480,239,47
0,74,37200,37320,120,44
0,74,37920,38041,121,44
0,74,40560,40800,240,42
0,74,41101,41160,59,37
0,74,41220,41280,60,37
0,74,41521,41640,119,42
0,74,45120,45241,121,59
0,74,45360,45480,120,52
0,74,45600,45720,120,62
0,74,45841,45960,119,52
0,74,47040,47160,120,59
0,74,47281,47401,120,52
0,74,47521,47641,120,62
0,74,47762,47880,118,52
0,74,52801,53280,479,47
0,74,56640,57120,480,60
0,74,58201,58321,120,58
0,74,60480,60961,481,47
0,74,64320,64801,481,60
0,74,65880,66002,122,58
0,74,67922,68041,119,66
0,74,68880,69001,121,66
0,74,69600,69841,241,64
0,74,71040,71280,240,47
0,74,74880,75360,480,73
0,74,86400,86521,121,50
0,74,88200,88332,132,44
0,74,92162,92280,118,50
0,74,94200,94333,133,47
0,74,95882,96012,130,49
0,74,97560,97692,132,48
0,74,98041,98172,131,42
0,74,98402,98521,119,47
0,74,99722,99852,130,48
0,74,99960,100092,132,47
0,74,100322,100442,120,57
0,74,101640,101772,132,59
0,74,102601,102721,120,64
0,74,103560,103682,122,64
0,74,105060,105120,60,41
0,74,105480,105600,120,40
0,74,107761,108001,240,42
0,74,108240,108480,240,40
0,74,108722,108960,238,42
0,74,111120,111360,240,47
0,74,112082,112200,118,44
0,74,112801,112920,119,44
0,74,115440,115680,240,42
0,74,115981,116040,59,37
0,74,116100,116160,60,37
0,74,116401,116520,119,42
0,74,120001,120120,119,59
0,74,120240,120360,120,52
0,74,120480,120600,120,62
0,74,120721,120841,120,52
0,74,121920,122040,120,59
0,74,122161,122280,119,52
0,74,122400,122520,120,62
0,74,122640,122760,120,52
0,74,127680,128161,481,47
0,74,131520,132001,481,60
0,74,133080,133202,122,58
0,74,135361,135840,479,47
0,74,139200,139680,480,60
0,74,140761,140881,120,58
0,74,142800,142920,120,66
0,74,143761,143881,120,66
0,74,144480,144720,240,64
0,74,145920,146160,240,47
0,74,158641,158760,119,45
0,74,158880,159120,240,55
0,74,161520,161642,122,43
0,74,164161,164640,479,51
0,74,168960,169081,121,47
0,74,169200,169321,121,48
0,74,169440,169561,121,51
0,74,169680,169802,122,52
0,74,169920,170040,120,55
0,74,170161,170281,120,57
0,74,170400,170522,122,58
0,74,170641,170760,119,60
0,74,175680,175920,240,61
0,74,176880,177001,121,43
0,74,177120,177360,240,47
0,74,182400,183121,721,46
0,74,184801,185280,479,60
0,74,186681,186722,41,54
0,74,188160,188400,240,60
0,74,188641,189120,479,49
0,74,190561,190680,119,49
0,74,192481,192960,479,60
0,74,194361,194401,40,54
0,74,195840,196080,240,60
0,74,196320,196800,480,49
0,74,198240,198361,121,49
0,74,202680,202801,121,53
0,74,203160,203280,120,54
0,74,203520,203640,120,59
0,74,203760,203880,120,59
0,74,204001,204121,120,59
0,74,204722,204840,118,59
0,74,204960,205081,121,59
0,74,205680,205800,120,59
0,74,205920,206040,120,59
0,74,213121,213240,119,67
0,74,213600,213721,121,67
0,74,216601,216733,132,67
0,74,217080,217212,132,67
0,74,217440,217560,120,66
0,74,218760,218893,133,57
0,74,219001,219132,131,56
0,74,219360,219480,120,68
0,74,220680,220812,132,61
0,74,221640,221762,122,64
0,74,222601,222721,120,64
0,74,228720,228960,240,44
0,74,237361,237600,239,42
0,74,240720,240840,120,49
0,74,241200,241320,120,49
0,74,241920,242401,481,54
0,74,248280,248401,121,29
0,74,248520,248640,120,29
0,74,248760,248881,121,30
0,74,249000,249120,120,30
0,74,249240,249360,120,31
0,74,249480,249601,121,31
0,74,249720,249840,120,30
0,74,249960,250080,120,30
0,74,250201,250321,120,30
0,74,250441,250561,120,30
0,74,250680,250800,120,32
0,74,250920,251040,120,32
0,74,251160,251280,120,30
0,74,251400,251520,120,30
0,74,251641,251760,119,37
0,74,251880,252001,121,28
0,74,252121,252242,121,37
0,74,252360,252480,120,37
0,74,252600,252721,121,39
0,74,252840,252961,121,39
0,74,253080,253200,120,40
0,74,253320,253441,121,40
0,74,254400,254881,481,63
0,74,255201,255280,79,48
0,74,255361,255600,239,66
0,74,258480,258720,240,45
0,74,262080,262561,481,69
0,74,262881,262960,79,52
0,74,263041,263520,479,74
0,74,274561,274681,120,45
0,74,277320,277440,120,54
0,74,278400,278520,120,53
0,74,281160,281280,120,50
0,74,282000,282120,120,56
0,74,282242,282361,119,66
0,74,282480,282600,120,66
0,74,283200,283320,120,66
0,74,283441,283560,119,66
0,74,284160,284400,240,75
0,74,285120,285361,241,64
0,74,287281,287401,120,41
0,74,287520,287760,240,47
0,74,288961,289441,480,42
0,75,21482,21612,130,43
0,75,30720,30960,240,45
0,75,38160,38280,120,47
0,75,38401,38640,239,43
0,75,39240,39300,60,37
0,75,44400,44520,120,47
0,75,44881,45000,119,51
0,75,46321,46440,119,47
0,75,46800,46920,120,51
0,75,96360,96493,133,43
0,75,105600,105840,240,45
0,75,113041,113162,121,47
0,75,113280,113520,240,45
0,75,114120,114180,60,37
0,75,119280,119400,120,47
0,75,119761,119880,119,51
0,75,121200,121320,120,47
0,75,121682,121800,118,51
0,75,151440,151560,120,50
0,75,151682,153600,1918,62
0,75,153600,153841,241,47
0,75,155521,156480,959,57
0,75,162241,162481,240,47
0,75,183121,183360,239,40
0,75,206760,206880,120,57
0,75,207721,207840,119,62
0,75,213840,213960,120,62
0,75,214201,214321,120,61
0,75,281280,281400,120,59
0,76,1200,1334,134,54
0,76,6960,7093,133,54
0,76,11400,11520,120,44
0,76,13200,13332,132,48
0,76,14400,14521,121,50
0,76,15360,15481,121,50
0,76,17160,17292,132,44
0,76,19441,19572,131,48
0,76,20880,21012,132,50
0,76,21120,21252,132,51
0,76,21361,21493,132,45
0,76,21600,21732,132,45
0,76,22560,22692,132,49
0,76,24360,24492,132,46
0,76,24720,24853,133,48
0,76,26281,26412,131,56
0,76,26640,26773,133,56
0,76,27000,27120,120,63
0,76,27960,28080,120,64
0,76,28801,28891,90,84
0,76,29041,29131,90,60
0,76,29282,29371,89,60
0,76,29521,29612,91,60
0,76,29761,30180,419,60
0,76,30960,31201,241,42
0,76,31440,31680,240,40
0,76,32400,32640,240,42
0,76,33600,33841,241,45
0,76,36180,36241,61,42
0,76,38640,38880,240,42
0,76,39181,39240,59,37
0,76,39300,39360,60,37
0,76,40080,40200,120,42
0,76,41040,41101,61,40
0,76,41280,41400,120,45
0,76,42600,42721,121,42
0,76,44281,44400,119,44
0,76,44520,44640,120,43
0,76,44760,44881,121,47
0,76,45000,45120,120,51
0,76,45241,45360,119,50
0,76,45480,45600,120,50
0,76,45720,45841,121,49
0,76,45960,46080,120,49
0,76,46200,46321,121,44
0,76,46440,46561,121,43
0,76,46680,46800,120,47
0,76,46920,47040,120,51
0,76,47160,47281,121,50
0,76,47401,47521,120,50
0,76,47641,47762,121,49
0,76,47880,48000,120,49
0,76,49681,49800,119,58
0,76,52320,52801,481,50
0,76,54201,54242,41,45
0,76,55680,55920,240,50
0,76,56160,56640,480,60
0,76,58080,58201,121,60
0,76,60001,60480,479,50
0,76,61882,61921,39,45
0,76,63360,63600,240,50
0,76,63840,64320,480,60
0,76,65760,65880,120,60
0,76,67680,67800,120,66
0,76,68640,68762,122,66
0,76,76082,76214,132,54
0,76,81840,81974,134,54
0,76,86281,86400,119,44
0,76,88080,88212,132,48
0,76,89280,89401,121,50
0,76,90240,90360,120,50
0,76,92042,92173,131,44
0,76,94321,94452,131,48
0,76,95761,95893,132,50
0,76,96001,96133,132,51
0,76,96241,96372,131,45
0,76,96481,96612,131,45
0,76,97440,97572,132,49
0,76,99240,99373,133,46
0,76,99600,99732,132,48
0,76,101161,101292,131,56
0,76,101521,101653,132,56
0,76,101880,102000,120,63
0,76,102842,102960,118,62
0,76,103682,103772,90,84
0,76,103921,104010,89,60
0,76,104161,104251,90,60
0,76,104402,104492,90,60
0,76,104640,105060,420,60
0,76,105840,106081,241,42
0,76,106321,106561,240,40
0,76,107280,107520,240,42
0,76,108480,108722,242,45
0,76,111060,111120,60,42
0,76,113520,113761,241,42
0,76,114062,114120,58,37
0,76,114180,114240,60,37
0,76,114960,115080,120,42
0,76,115920,115981,61,40
0,76,116160,116280,120,45
0,76,117481,117601,120,42
0,76,119161,119280,119,44
0,76,119400,119520,120,43
0,76,119640,119761,121,47
0,76,119880,120001,121,51
0,76,120120,120240,120,50
0,76,120360,120480,120,50
0,76,120600,120721,121,49
0,76,120841,120961,120,49
0,76,121081,121200,119,44
0,76,121320,121440,120,43
0,76,121561,121682,121,47
0,76,121800,121920,120,51
0,76,122040,122161,121,50
0,76,122280,122400,120,50
0,76,122520,122640,120,49
0,76,122760,122880,120,49
0,76,124561,124680,119,58
0,76,127201,127680,479,50
0,76,129082,129121,39,45
0,76,130560,130800,240,50
0,76,131040,131520,480,60
0,76,132960,133080,120,60
0,76,134880,135361,481,50
0,76,136761,136801,40,45
0,76,138240,138482,242,50
0,76,138720,139200,480,60
0,76,140640,140761,121,60
0,76,142560,142681,121,66
0,76,143520,143640,120,66
0,76,150960,151082,122,45
0,76,151201,151440,239,55
0,76,153841,153960,119,43
0,76,156480,156960,480,51
0,76,158161,158281,120,42
0,76,158401,158641,240,51
0,76,162481,162600,119,43
0,76,163200,164161,961,57
0,76,167040,167160,120,64
0,76,167281,167400,119,63
0,76,167520,167641,121,63
0,76,167761,167881,120,63
0,76,168001,168120,119,63
0,76,168240,168360,120,62
0,76,168480,168601,121,60
0,76,168721,168840,119,59
0,76,175440,175621,181,51
0,76,176640,176880,240,47
0,76,183360,183840,480,46
0,76,186241,186600,359,60
0,76,186640,186680,40,54
0,76,186720,186841,121,60
0,76,187920,188040,120,54
0,76,190441,190561,120,43
0,76,193920,194281,361,60
0,76,194320,194360,40,54
0,76,194401,194520,119,60
0,76,195600,195720,120,54
0,76,198120,198240,120,43
0,76,203400,203520,120,53
0,76,203640,203760,120,53
0,76,204241,204360,119,59
0,76,204600,204722,122,53
0,76,205200,205320,120,59
0,76,205560,205680,120,53
0,76,206040,206160,120,54
0,76,206641,206760,119,64
0,76,206880,207000,120,64
0,76,207600,207721,121,65
0,76,207840,207961,121,64
0,76,208680,208800,120,59
0,76,209640,209761,121,64
0,76,211921,212040,119,62
0,76,212400,212520,120,62
0,76,214080,214201,121,67
0,76,214321,214441,120,65
0,76,216000,216132,132,63
0,76,216480,216612,132,68
0,76,218281,218412,131,56
0,76,218640,218773,133,57
0,76,220201,220332,131,58
0,76,220560,220692,132,58
0,76,220920,221040,120,63
0,76,221880,222001,121,59
0,76,222721,222811,90,84
0,76,222960,223050,90,60
0,76,223200,223290,90,60
0,76,223441,223531,90,60
0,76,223681,224101,420,60
0,76,224281,224401,120,40
0,76,228240,228480,240,42
0,76,229200,229440,240,45
0,76,231360,231600,240,47
0,76,235921,236041,120,42
0,76,236880,237120,240,40
0,76,240960,241081,121,55
0,76,253441,253801,360,68
0,76,254280,254400,120,58
0,76,254881,254940,59,55
0,76,255001,255060,59,56
0,76,255120,255201,81,56
0,76,255280,255361,81,48
0,76,258240,258480,240,50
0,76,261120,261480,360,70
0,76,261960,262080,120,63
0,76,262561,262620,59,60
0,76,262680,262740,60,61
0,76,262800,262881,81,61
0,76,262960,263041,81,52
0,76,264241,264374,133,54
0,76,270000,270134,134,54
0,76,274440,274561,121,44
0,76,274681,274800,119,46
0,76,277440,277921,481,59
0,76,278520,278641,121,53
0,76,281041,281160,119,54
0,76,281400,281521,121,51
0,76,281881,282000,119,53
0,76,283081,283200,119,59
0,76,284041,284160,119,59
0,76,284640,284880,240,64
0,76,286800,286920,120,42
0,76,287040,287281,241,47
0,77,5760,6000,240,54
0,77,80640,80880,240,54
0,77,154562,154800,238,47
0,77,173760,174241,481,40
0,77,229440,229681,241,50
0,77,235681,235801,120,45
0,77,236400,236640,240,42
0,77,268800,269040,240,54
0,78,1082,1212,130,55
0,78,1320,1452,132,54
0,78,1680,1813,133,55
0,78,4321,4800,479,45
0,78,5041,5160,119,44
0,78,6000,6240,240,45
0,78,6842,6972,130,55
0,78,7081,7212,131,54
0,78,7440,7573,133,55
0,78,10081,10560,479,45
0,78,10801,10920,119,44
0,78,11280,11400,120,44
0,78,12480,12568,88,47
0,78,12640,12728,88,48
0,78,12799,12888,89,48
0,78,12959,13048,89,48
0,78,13119,13207,88,44
0,78,17040,17172,132,48
0,78,18240,18361,121,50
0,78,19200,19320,120,54
0,78,19560,19693,133,49
0,78,20761,20894,133,55
0,78,21241,21373,132,48
0,78,21720,21853,133,47
0,78,22441,22572,131,51
0,78,24601,24732,131,47
0,78,26521,26652,131,56
0,78,27360,27481,121,74
0,78,27601,27720,119,64
0,78,28321,28442,121,77
0,78,28560,28680,120,64
0,78,32160,32400,240,44
0,78,39120,39181,61,40
0,78,39840,39960,120,44
0,78,44640,44760,120,50
0,78,46561,46680,119,50
0,78,53760,54120,360,50
0,78,54161,54201,40,45
0,78,54240,54360,120,50
0,78,55440,55680,240,45
0,78,57960,58080,120,53
0,78,61440,61801,361,50
0,78,61840,61880,40,45
0,78,61921,62040,119,50
0,78,63121,63360,239,45
0,78,65640,65760,120,53
0,78,75961,76093,132,55
0,78,76200,76332,132,54
0,78,76560,76693,133,55
0,78,79201,79680,479,45
0,78,79920,80040,120,44
0,78,80880,81121,241,45
0,78,81720,81852,132,55
0,78,81962,82092,130,54
0,78,82320,82453,133,55
0,78,84961,85440,479,45
0,78,85680,85800,120,44
0,78,86160,86281,121,44
0,78,87360,87448,88,47
0,78,87520,87608,88,48
0,78,87679,87767,88,48
0,78,87839,87928,89,48
0,78,87999,88087,88,44
0,78,91922,92054,132,48
0,78,93122,93240,118,50
0,78,94080,94200,120,54
0,78,94440,94572,132,49
0,78,95640,95772,132,55
0,78,96121,96252,131,48
0,78,96600,96733,133,47
0,78,97320,97452,132,51
0,78,99480,99612,132,47
0,78,101400,101533,133,56
0,78,102240,102360,120,74
0,78,102480,102601,121,64
0,78,103200,103322,122,77
0,78,103440,103560,120,64
0,78,107040,107280,240,44
0,78,114000,114062,62,40
0,78,114720,114840,120,44
0,78,119520,119640,120,50
0,78,121440,121561,121,50
0,78,128640,129001,361,50
0,78,129040,129080,40,45
0,78,129121,129240,119,50
0,78,130321,130560,239,45
0,78,132840,132960,120,53
0,78,136320,136680,360,50
0,78,136721,136761,40,45
0,78,136800,136920,120,50
0,78,138000,138240,240,45
0,78,140520,140640,120,53
0,78,150480,150602,122,42
0,78,150720,150960,240,51
0,78,154800,154921,121,43
0,78,155521,156480,959,57
0,78,157681,157800,119,43
0,78,157920,158161,241,47
0,78,162000,162241,241,43
0,78,164161,164640,479,51
0,78,165120,165240,120,47
0,78,165361,165480,119,48
0,78,165601,165720,119,51
0,78,165840,165960,120,52
0,78,166080,166200,120,55
0,78,166320,166441,121,57
0,78,166560,166681,121,58
0,78,166800,166920,120,60
0,78,173521,173700,179,46
0,78,174960,175140,180,52
0,78,175200,175440,240,59
0,78,186600,186640,40,54
0,78,186961,187080,119,56
0,78,187680,187920,240,56
0,78,194281,194320,39,54
0,78,194640,194760,120,56
0,78,195360,195600,240,56
0,78,204121,204241,120,54
0,78,204480,204600,120,59
0,78,205081,205200,119,54
0,78,205440,205560,120,59
0,78,206160,206281,121,64
0,78,206522,206641,119,58
0,78,207000,207120,120,59
0,78,207481,207600,119,67
0,78,207961,208080,119,65
0,78,208560,208680,120,67
0,78,208800,208921,121,67
0,78,209520,209640,120,65
0,78,209761,209880,119,67
0,78,210960,211080,120,62
0,78,211440,211561,121,62
0,78,212160,212280,120,67
0,78,212642,212761,119,67
0,78,213000,213121,121,57
0,78,213240,213360,120,59
0,78,213480,213600,120,58
0,78,213721,213840,119,59
0,78,213960,214080,120,59
0,78,214441,214561,120,60
0,78,214680,214802,122,60
0,78,215881,216013,132,65
0,78,216120,216252,132,64
0,78,216362,216492,130,70
0,78,218521,218652,131,57
0,78,220441,220572,131,58
0,78,221281,221401,120,74
0,78,221520,221640,120,64
0,78,222241,222360,119,77
0,78,222480,222601,121,64
0,78,224162,224281,119,42
0,78,224401,224520,119,40
0,78,226560,226801,241,48
0,78,228000,228240,240,45
0,78,229681,229920,239,46
0,78,230400,231122,722,51
0,78,231240,231360,120,42
0,78,231600,231721,121,42
0,78,234240,234481,241,48
0,78,235081,235141,60,37
0,78,240000,240120,120,46
0,78,241920,242040,120,56
0,78,243840,244320,480,41
0,78,249120,249601,481,46
0,78,252961,253441,480,59
0,78,254160,254280,120,58
0,78,254940,255001,61,49
0,78,255060,255120,60,50
0,78,260640,261120,480,64
0,78,261842,261960,118,63
0,78,262620,262680,60,53
0,78,262740,262800,60,55
0,78,264120,264252,132,55
0,78,264361,264492,131,54
0,78,264720,264853,133,55
0,78,267361,267840,479,45
0,78,268081,268200,119,44
0,78,269040,269280,240,45
0,78,269880,270012,132,55
0,78,270122,270252,130,54
0,78,270480,270613,133,55
0,78,273121,273600,479,45
0,78,273840,273960,120,44
0,78,274320,274440,120,44
0,78,274800,274920,120,48
0,78,276480,276961,481,59
0,78,278641,278760,119,54
0,78,280321,280440,119,61
0,78,280920,281041,121,51
0,78,281521,281641,120,54
0,78,281760,281881,121,57
0,78,282600,282721,121,58
0,78,282840,282961,121,60
0,78,283560,283680,120,58
0,78,283801,283921,120,60
0,78,285120,285361,241,64
0,78,286320,286441,121,43
0,78,286561,286800,239,47
0,79,960,1094,134,66
0,79,1561,1693,132,55
0,79,1800,1932,132,55
0,79,4920,5041,121,44
0,79,5160,5281,121,44
0,79,5520,5581,61,46
0,79,6720,6852,132,66
0,79,7321,7453,132,55
0,79,7561,7692,131,55
0,79,10680,10801,121,44
0,79,10920,11042,122,44
0,79,11161,11280,119,44
0,79,12562,12649,87,43
0,79,12722,12808,86,43
0,79,12880,12968,88,44
0,79,13040,13127,87,44
0,79,16320,16408,88,47
0,79,16480,16569,89,48
0,79,16639,16727,88,48
0,79,16799,16888,89,48
0,79,16959,17047,88,44
0,79,19680,19812,132,50
0,79,20640,20773,133,56
0,79,21840,21972,132,49
0,79,22320,22452,132,53
0,79,24000,24132,132,55
0,79,24242,24373,131,46
0,79,24480,24613,133,56
0,79,25921,26052,131,65
0,79,26162,26292,130,54
0,79,26400,26533,133,69
0,79,75841,75973,132,66
0,79,76441,76572,131,55
0,79,76681,76812,131,55
0,79,79800,79920,120,44
0,79,80040,80162,122,44
0,79,80400,80460,60,46
0,79,81601,81733,132,66
0,79,82202,82333,131,55
0,79,82440,82572,132,55
0,79,85560,85680,120,44
0,79,85800,85922,122,44
0,79,86041,86160,119,44
0,79,87442,87529,87,43
0,79,87602,87688,86,43
0,79,87760,87848,88,44
0,79,87920,88007,87,44
0,79,91200,91290,90,47
0,79,91360,91448,88,48
0,79,91520,91607,87,48
0,79,91680,91767,87,48
0,79,91841,91927,86,44
0,79,94560,94692,132,50
0,79,95520,95652,132,56
0,79,96721,96852,131,49
0,79,97201,97332,131,53
0,79,98880,99013,133,55
0,79,99121,99254,133,46
0,79,99361,99492,131,56
0,79,100801,100932,131,65
0,79,101040,101172,132,54
0,79,101280,101412,132,70
0,79,150000,150120,120,43
0,79,150240,150480,240,47
0,79,154320,154562,242,43
0,79,156480,156960,480,51
0,79,157440,157681,241,47
0,79,162960,163200,240,43
0,79,173040,173220,180,47
0,79,173280,173521,241,51
0,79,174720,174960,240,59
0,79,187440,187560,120,54
0,79,195121,195241,120,54
0,79,204360,204480,120,53
0,79,205320,205440,120,53
0,79,206400,206522,122,64
0,79,207120,207241,121,64
0,79,207360,207481,121,69
0,79,208080,208201,121,67
0,79,208440,208560,120,60
0,79,208921,209041,120,61
0,79,209400,209520,120,66
0,79,209880,210001,121,61
0,79,211200,211320,120,67
0,79,211681,211800,119,67
0,79,214561,214680,119,70
0,79,214802,214920,118,65
0,79,215760,215893,133,66
0,79,216240,216374,134,67
0,79,217921,218052,131,66
0,79,218162,218292,130,56
0,79,218400,218533,133,66
0,79,219841,219973,132,68
0,79,220080,220212,132,56
0,79,220320,220452,132,70
0,79,224101,224162,61,41
0,79,224520,224640,120,40
0,79,226801,227041,240,42
0,79,227280,227521,241,40
0,79,227762,228000,238,42
0,79,230160,230400,240,47
0,79,231122,231240,118,44
0,79,231840,231960,120,44
0,79,234481,234720,239,42
0,79,235020,235081,61,37
0,79,235141,235201,60,37
0,79,235442,235561,119,42
0,79,236161,236400,239,45
0,79,240960,241081,121,62
0,79,241200,241320,120,55
0,79,241440,241560,120,64
0,79,241681,241800,119,55
0,79,242880,243000,120,59
0,79,243121,243241,120,55
0,79,243361,243481,120,62
0,79,243602,243720,118,55
0,79,248640,249120,480,47
0,79,252480,252961,481,60
0,79,254040,254160,120,58
0,79,260161,260640,479,66
0,79,261720,261842,122,63
0,79,264001,264132,131,66
0,79,264602,264732,130,55
0,79,264840,264972,132,55
0,79,267960,268081,121,44
0,79,268200,268322,122,44
0,79,268560,268620,60,46
0,79,269761,269893,132,66
0,79,270362,270493,131,55
0,79,270600,270732,132,55
0,79,273720,273840,120,44
0,79,273960,274082,122,44
0,79,274201,274320,119,44
0,79,274920,275040,120,49
0,79,276360,276480,120,54
0,79,277921,278160,239,54
0,79,278760,278880,120,55
0,79,280200,280321,121,54
0,79,280440,280560,120,51
0,79,280800,280920,120,58
0,79,281641,281760,119,54
0,79,282961,283081,120,66
0,79,283921,284041,120,66
0,79,284640,284880,240,64
0,79,286080,286320,240,47
0,80,31921,32160,239,42
0,80,39601,39720,119,42
0,80,49440,49560,120,63
0,80,54120,54161,41,45
0,80,54481,54601,120,47
0,80,55200,55440,240,47
0,80,61801,61840,39,45
0,80,62162,62280,118,47
0,80,62880,63121,241,47
0,80,69600,69841,241,75
0,80,106802,107040,238,42
0,80,114481,114600,119,42
0,80,124320,124440,120,63
0,80,129001,129040,39,45
0,80,129362,129480,118,47
0,80,130080,130321,241,47
0,80,136680,136721,41,45
0,80,137041,137161,120,47
0,80,137760,138000,240,47
0,80,144480,144720,240,75
0,80,224640,224880,240,45
0,80,232081,232200,119,47
0,80,232320,232560,240,45
0,80,237840,238081,241,46
0,80,238081,239040,959,49
0,80,240241,240360,119,47
0,80,240720,240840,120,53
0,80,242161,242280,119,51
0,80,242641,242760,119,51
0,80,280560,280681,121,54
0,81,1440,1573,133,65
0,81,1920,2400,480,62
0,81,2880,2940,60,50
0,81,3840,4321,481,54
0,81,4800,4920,120,50
0,81,5281,5340,59,49
0,81,7200,7333,133,65
0,81,7680,8160,480,62
0,81,8642,8700,58,50
0,81,9600,10081,481,54
0,81,10560,10680,120,50
0,81,11042,11161,119,50
0,81,16402,16489,87,43
0,81,16562,16648,86,43
0,81,16720,16808,88,44
0,81,16880,16967,87,44
0,81,19800,19932,132,51
0,81,20520,20654,134,56
0,81,21960,22093,133,51
0,81,22200,22332,132,54
0,81,24120,24252,132,46
0,81,26040,26173,133,54
0,81,27481,27601,120,64
0,81,28442,28560,118,64
0,81,29041,29131,90,74
0,81,29282,29371,89,74
0,81,29521,29612,91,74
0,81,29761,30180,419,74
0,81,31680,31921,241,46
0,81,39360,39480,120,46
0,81,48721,48840,119,57
0,81,49200,49320,120,58
0,81,49920,50401,481,60
0,81,54961,55200,239,45
0,81,62640,62880,240,45
0,81,70080,70321,241,75
0,81,76320,76453,133,65
0,81,76800,77280,480,62
0,81,77762,77820,58,50
0,81,78720,79201,481,54
0,81,79680,79800,120,50
0,81,80162,80220,58,49
0,81,82080,82212,132,65
0,81,82560,83040,480,62
0,81,83520,83580,60,50
0,81,84480,84961,481,54
0,81,85440,85560,120,50
0,81,85922,86041,119,50
0,81,91280,91369,89,43
0,81,91441,91529,88,43
0,81,91599,91687,88,44
0,81,91759,91848,89,44
0,81,94680,94812,132,51
0,81,95400,95533,133,56
0,81,96841,96972,131,51
0,81,97080,97213,133,54
0,81,99001,99132,131,46
0,81,100920,101053,133,54
0,81,102360,102480,120,64
0,81,103322,103440,118,64
0,81,103921,104010,89,74
0,81,104161,104251,90,74
0,81,104402,104492,90,74
0,81,104640,105060,420,74
0,81,106561,106802,241,46
0,81,114240,114360,120,46
0,81,123600,123720,120,57
0,81,124080,124200,120,58
0,81,124800,125281,481,60
0,81,129840,130080,240,45
0,81,137521,137760,239,45
0,81,144960,145201,241,75
0,81,149760,150000,240,47
0,81,155281,155521,240,43
0,81,171960,172080,120,57
0,81,172201,172320,119,57
0,81,172440,172560,120,55
0,81,172680,172800,120,52
0,81,172800,173040,240,51
0,81,187201,187440,239,60
0,81,194880,195121,241,60
0,81,206281,206400,119,58
0,81,207241,207360,119,58
0,81,208321,208440,119,67
0,81,209041,209160,119,67
0,81,209280,209400,120,67
0,81,210001,210121,120,67
0,81,210482,210600,118,62
0,81,212040,212160,120,57
0,81,212280,212400,120,57
0,81,212520,212642,122,57
0,81,212761,212880,119,57
0,81,214920,215040,120,60
0,81,215640,215772,132,66
0,81,218040,218173,133,56
0,81,219960,220092,132,56
0,81,221401,221520,119,64
0,81,222360,222480,120,64
0,81,222960,223050,90,74
0,81,223200,223290,90,74
0,81,223441,223531,90,74
0,81,223681,224101,420,74
0,81,224880,225121,241,42
0,81,225361,225601,240,40
0,81,226320,226560,240,42
0,81,227521,227762,241,45
0,81,230100,230160,60,42
0,81,232560,232800,240,42
0,81,233041,233280,239,40
0,81,234001,234121,120,42
0,81,234961,235020,59,40
0,81,235201,235321,120,45
0,81,239040,239280,240,42
0,81,240120,240241,121,44
0,81,240360,240480,120,43
0,81,240600,240720,120,47
0,81,240840,240960,120,53
0,81,241081,241200,119,53
0,81,241320,241440,120,52
0,81,241560,241681,121,51
0,81,241800,241920,120,49
0,81,242040,242161,121,49
0,81,242280,242401,121,47
0,81,242520,242641,121,47
0,81,242760,242880,120,53
0,81,243000,243121,121,50
0,81,243241,243361,120,52
0,81,243481,243602,121,49
0,81,243720,243840,120,49
0,81,245521,245641,120,58
0,81,248160,248640,480,50
0,81,250041,250082,41,45
0,81,251520,251760,240,50
0,81,252001,252480,479,60
0,81,253921,254040,119,60
0,81,259680,260161,481,66
0,81,261600,261720,120,66
0,81,264480,264614,134,65
0,81,264961,265440,479,62
0,81,265920,265981,61,50
0,81,266880,267361,481,54
0,81,267840,267960,120,50
0,81,268322,268380,58,49
0,81,270240,270372,132,65
0,81,270720,271200,480,62
0,81,271680,271740,60,50
0,81,272640,273121,481,54
0,81,273600,273720,120,50
0,81,274082,274201,119,50
0,81,275040,275162,122,50
0,81,276961,277200,239,54
0,81,278880,279000,120,56
0,81,280081,280200,119,54
0,81,280681,280800,119,54
0,81,282721,282840,119,66
0,81,283680,283801,121,66
0,82,174720,175680,960,59
0,82,233761,233881,120,44
0,83,3121,3181,60,45
0,83,8880,8941,61,45
0,83,19921,20054,133,52
0,83,20400,20532,132,56
0,83,22081,22212,131,53
0,83,48960,49081,121,63
0,83,54720,54961,241,50
0,83,62400,62640,240,50
0,83,78000,78061,61,45
0,83,83761,83821,60,45
0,83,94800,94934,134,52
0,83,95282,95412,130,56
0,83,96961,97092,131,53
0,83,123840,123961,121,63
0,83,129600,129840,240,50
0,83,137280,137521,241,50
0,83,170040,170161,121,50
0,83,170281,170400,119,51
0,83,170522,170641,119,55
0,83,170760,170881,121,55
0,83,171000,171121,121,57
0,83,171241,171361,120,57
0,83,171480,171600,120,57
0,83,171720,171840,120,57
0,83,174480,174661,181,46
0,83,175680,176640,960,61
0,83,208201,208321,120,60
0,83,209160,209280,120,60
0,83,210241,210361,120,67
0,83,210720,210840,120,67
0,83,211080,211200,120,56
0,83,211320,211440,120,57
0,83,211561,211681,120,57
0,83,211800,211921,121,58
0,83,215040,215172,132,59
0,83,215521,215652,131,65
0,83,226080,226320,240,44
0,83,240480,240600,120,50
0,83,242401,242520,119,54
0,83,249601,249960,359,50
0,83,250000,250040,40,45
0,83,250080,250201,121,50
0,83,251280,251400,120,45
0,83,253801,253921,120,53
0,83,261480,261600,120,58
0,83,266161,266221,60,45
0,83,271921,271981,60,45
0,83,275162,275280,118,51
0,83,276000,276121,121,49
0,83,279000,279120,120,56
0,83,279960,280081,121,51
0,84,210121,210241,120,60
0,84,233520,233641,121,42
0,85,3361,3422,61,45
0,85,9121,9181,60,45
0,85,20040,20173,133,53
0,85,20280,20414,134,56
0,85,78241,78302,61,45
0,85,84001,84062,61,45
0,85,94922,95053,131,53
0,85,95160,95292,132,56
0,85,168120,168240,120,57
0,85,168360,168480,120,57
0,85,168601,168721,120,55
0,85,168840,168960,120,52
0,85,169081,169200,119,44
0,85,169321,169440,119,44
0,85,169561,169680,119,47
0,85,169802,169920,118,47
0,85,174000,174180,180,47
0,85,174241,174480,239,51
0,85,215161,215293,132,60
0,85,215400,215532,132,64
0,85,225842,226080,238,42
0,85,245280,245400,120,63
0,85,249960,250000,40,45
0,85,250321,250441,120,47
0,85,251040,251280,240,47
0,85,266401,266461,60,45
0,85,272161,272221,60,45
0,85,275280,275400,120,53
0,85,279120,279240,120,57
0,85,279600,279721,121,55
0,85,279840,279960,120,63
0,85,284640,284880,240,75
0,86,3602,3660,58,45
0,86,9360,9421,61,45
0,86,20161,20292,131,55
0,86,78480,78541,61,45
0,86,84240,84301,61,45
0,86,95041,95173,132,55
0,86,165240,165361,121,44
0,86,165480,165601,121,44
0,86,165720,165840,120,47
0,86,165960,166080,120,47
0,86,166200,166320,120,50
0,86,166441,166560,119,51
0,86,166681,166800,119,55
0,86,166920,167040,120,55
0,86,167160,167281,121,57
0,86,167400,167520,120,57
0,86,167641,167761,120,57
0,86,167881,168001,120,57
0,86,173760,174000,240,51
0,86,210361,210482,121,57
0,86,210600,210720,120,57
0,86,210840,210960,120,56
0,86,215280,215414,134,61
0,86,225601,225842,241,46
0,86,233280,233400,120,46
0,86,244561,244680,119,57
0,86,245040,245160,120,58
0,86,245761,246240,479,60
0,86,250800,250920,120,45
0,86,266640,266700,60,45
0,86,272400,272461,61,45
0,86,275400,275510,110,54
0,86,275521,276000,479,58
0,86,279240,279360,120,60
0,86,279480,279600,120,55
0,86,279721,279840,119,55
0,86,285120,285361,241,75
0,88,244801,244920,119,63
0,88,250561,250800,239,50
0,88,279360,279480,120,63
